<?xml version="1.0" encoding="UTF-8" standalone="no"?>
<svg
   version="1.1"
   width="340.43475"
   height="324.65482"
   id="svg37"
   sodipodi:docname="Africa.svg"
   inkscape:version="1.1.2 (0a00cf5339, 2022-02-04)"
   xmlns:inkscape="http://www.inkscape.org/namespaces/inkscape"
   xmlns:sodipodi="http://sodipodi.sourceforge.net/DTD/sodipodi-0.dtd"
   xmlns:xlink="http://www.w3.org/1999/xlink"
   xmlns="http://www.w3.org/2000/svg"
   xmlns:svg="http://www.w3.org/2000/svg"
   xmlns:rdf="http://www.w3.org/1999/02/22-rdf-syntax-ns#"
   xmlns:cc="http://creativecommons.org/ns#"
   xmlns:dc="http://purl.org/dc/elements/1.1/">
  <sodipodi:namedview
     id="namedview39"
     pagecolor="#ffffff"
     bordercolor="#666666"
     borderopacity="1.0"
     inkscape:pageshadow="2"
     inkscape:pageopacity="0.0"
     inkscape:pagecheckerboard="0"
     showgrid="false"
     fit-margin-top="0"
     fit-margin-left="0"
     fit-margin-right="0"
     fit-margin-bottom="0"
     inkscape:zoom="2.5048392"
     inkscape:cx="170.0708"
     inkscape:cy="161.48741"
     inkscape:window-width="1920"
     inkscape:window-height="1015"
     inkscape:window-x="0"
     inkscape:window-y="0"
     inkscape:window-maximized="1"
     inkscape:current-layer="svg37" />
  <metadata
     id="metadata2">
    <rdf:RDF>
      <cc:Work
         rdf:about="">
        <dc:format>image/svg+xml</dc:format>
        <dc:type
           rdf:resource="http://purl.org/dc/dcmitype/StillImage" />
        <dc:title>Africa (orthographic projection)</dc:title>
      </cc:Work>
    </rdf:RDF>
  </metadata>
  <defs
     id="defs20">
    <linearGradient
       id="L1"
       style="stop-color:#000000">
      <stop
         offset="0"
         style="stop-opacity:0"
         id="stop4" />
      <stop
         offset="0.49"
         style="stop-opacity:0.02"
         id="stop6" />
      <stop
         offset="0.57"
         style="stop-opacity:0.04"
         id="stop8" />
      <stop
         offset="0.64"
         style="stop-opacity:0.07"
         id="stop10" />
      <stop
         offset="0.7"
         style="stop-opacity:0.15"
         id="stop12" />
      <stop
         offset="0.73"
         style="stop-opacity:0.21"
         id="stop14" />
      <stop
         offset="1"
         style="stop-opacity:0.55"
         id="stop16" />
    </linearGradient>
    <radialGradient
       id="R1"
       xlink:href="#L1"
       cx="99.958"
       cy="139.375"
       r="45.07"
       fx="99.958"
       fy="139.375"
       gradientUnits="userSpaceOnUse"
       gradientTransform="matrix(-3.098,7.94,-7.191,-2.806,1577.163,-235.958)" />
  </defs>
  <path
     id="african-lands"
     style="fill:#e0e0e0;fill-opacity:1;stroke:none;stroke-width:0.6;stroke-linecap:butt;stroke-linejoin:miter;stroke-miterlimit:4;stroke-dasharray:none;stroke-dashoffset:0;stroke-opacity:1"
     d="m 144.81783,1.5e-4 -7.01838,2.14718 -5.44806,-1.2178 -4.29435,1.8267 -5.15963,-1.2178 -10.9923,1.8267 -4.55073,2.4356 -3.33293,0.6089 -4.58278,2.4356 h -3.0445 l -0.32048,-1.50622 -6.37743,0.92937 -2.14718,-2.78812 -1.8267,0.6089 -4.8712,7.01838 -10.6718,5.80058 -3.33293,4.58277 -0.92937,5.44806 -0.32048,0.32047 -2.4356,3.0445 -6.08901,4.26231 -5.44806,1.24985 -3.97387,5.4801 -3.65341,2.11513 -3.0445,6.37743 -4.23026,3.42908 -6.44153,9.38988 -1.50622,4.26231 0.86528,-1.50623 1.85874,4.23026 -2.11512,3.97388 0.57685,7.33885 -3.6534,9.42194 -4.26231,4.29435 3.36498,3.90978 -0.32048,2.46765 3.68546,-0.6089 -3.04451,1.2178 -1.24985,-0.89732 -0.92937,3.94183 h 2.17922 l -2.17922,0.89733 3.0445,0.32047 -1.50623,1.2178 1.82671,0.32047 -0.6089,1.18576 4.2623,-1.18576 -2.4356,0.92938 1.8267,0.86528 -2.11513,1.24985 0.92938,1.50623 1.18575,-0.57686 -0.57685,1.18576 1.50622,-0.92938 0.6089,4.29435 1.82671,0.89733 1.8267,0.92938 -0.92938,1.50622 1.53828,0.6089 0.28843,3.97388 1.53827,-0.28842 -2.11513,0.6089 3.33293,3.33293 -0.28842,1.8267 5.15963,2.72403 10.0629,9.45398 5.19168,2.14718 6.08901,-3.04451 9.45398,-1.2178 8.81304,2.43561 9.13351,-4.26231 6.40948,-2.46765 11.2807,-2.40355 -1.85874,1.2178 4.58277,0.32047 3.04451,2.72403 1.53827,-0.92937 -1.53827,1.24984 2.14717,0.28843 -1.53827,0.28843 0.64095,0.92937 1.50622,-0.92937 -1.50622,1.8267 3.0445,4.29435 3.33293,-0.32047 v -1.2178 l 0.6089,1.2178 -0.28843,-1.53828 0.89733,1.53828 0.6089,-1.8267 1.2178,1.2178 4.29435,-0.32048 -0.32047,-1.79465 1.50623,2.11513 1.53827,-1.2178 1.50623,3.6534 2.46765,-0.6089 0.57685,1.2178 h -1.18575 l 1.79466,3.6534 -3.04451,9.13351 1.85875,0.32048 -0.32047,3.0445 -1.53828,-0.32047 3.04451,1.53827 -2.11513,0.6089 -0.92938,-1.2178 -0.92937,4.87121 h -2.11513 l 4.58278,8.23618 10.0629,9.74241 2.11513,6.08901 2.4356,1.2178 -2.11513,0.6089 5.48011,10.9602 -1.8267,3.0445 2.11513,4.29436 2.11513,4.83915 -0.86528,5.83263 -5.22373,5.44806 -3.33293,11.3127 0.6089,9.74241 12.4985,20.3822 2.14717,16.4403 9.74241,15.575 4.23026,6.98633 0.32048,3.33293 -1.82671,1.24985 2.14718,5.76853 1.53827,-0.89732 4.55074,3.0445 10.3513,-3.33293 8.84508,0.89733 8.84508,-2.43561 13.1074,-9.13351 4.26231,-5.4801 1.8267,-2.14718 4.83916,-3.97388 3.97387,-10.3193 -0.6089,0.86528 -1.2178,-1.50623 13.4279,-7.91571 1.18576,-8.52461 -2.72403,-7.3068 0.28843,-3.97388 0.92937,0.92937 6.69791,-4.58278 2.75607,-4.55073 13.7163,-6.40948 0.6089,-1.2178 4.23026,-6.08901 -0.86528,-8.84508 0.86528,-0.92937 -0.6089,-6.69791 1.53827,-3.0445 -2.72402,-2.11513 -1.24985,-0.92938 v -0.28842 l -1.18576,-7.94776 0.89733,-2.11513 h -1.2178 l 1.8267,-3.97388 -3.36498,-4.55073 2.14718,-6.40948 3.6534,-7.62728 0.92938,-1.8267 3.6534,-2.11513 -0.92937,-1.50623 h 2.46765 l 9.74241,-12.851 10.3193,-8.20413 7.62728,-9.74241 10.0629,-23.4587 v -2.75608 l -0.28843,-1.53827 2.11513,-0.57686 h -1.50623 l 0.28843,-6.37743 -2.14718,-0.92938 -4.83915,3.04451 -8.26823,0.92937 -3.62136,2.11513 -2.75608,-0.92937 -4.8712,2.4356 -6.37744,-5.80058 -2.75607,0.32047 3.6534,-2.11513 -0.6089,-2.14717 -10.0629,-10.0629 -4.26231,-1.50622 -0.92937,-1.53828 -0.89733,-0.89733 -0.28843,1.82671 -6.40948,-13.7163 -5.51215,-3.68545 -2.40356,-10.3193 0.89733,0.57685 -2.40355,-4.55073 -5.51216,-3.97387 -1.50623,-4.26231 h 1.18576 l -3.04451,-2.4356 -8.20413,-14.3252 -4.58278,-4.87121 -1.08961,-3.6534 c -0.0121,-0.0186 -0.0206,-0.0449 -0.032,-0.0641 -0.0616,-0.10344 -0.12835,-0.225 -0.16023,-0.35253 -0.20906,-0.83622 -0.70505,-1.71627 -0.70505,-2.78812 -10e-6,-0.15107 0,-0.2976 0,-0.44866 0,-0.45866 -0.0577,-0.9373 -0.12819,-1.41009 l -1.53827,0.22433 -0.89733,-1.85875 -3.6534,-0.32047 -7.33886,3.0445 -8.49256,-2.40355 -7.33886,-0.32048 -1.2178,-1.82669 -6.6979,-0.89733 -0.92938,-1.85875 -5.4801,-1.18575 -6.40949,3.0445 v 5.44805 h -0.28842 l -4.29435,2.17923 -4.55074,-2.46765 -8.5246,-2.11513 -2.14718,-3.97387 -7.30681,-2.11513 -4.23026,0.28843 -8.26823,-3.65341 -0.6089,-1.85875 4.90326,-3.90978 -2.43561,-3.68545 2.43561,-3.6534 L 147.28563,2.4356 144.81798,0 Z m -108.096,55.2177 0.25638,-0.38457 -0.92937,0.92937 z m 50.4747,-50.0901 0.0641,0.0961 0.16023,-0.0961 c -0.0745,0.004 -0.14959,-0.003 -0.22433,0 z m -35.8931,27.4967 -2.14718,1.53827 1.53828,-0.64095 z m -2.14718,1.8267 -3.0445,3.0445 1.8267,-0.6089 z m -8.20413,0.89733 -3.0445,0.92937 0.28842,1.53828 z m 0.89733,1.53827 -0.6089,1.2178 1.50622,-0.28842 z m 198.95,17.9466 1.53828,4.90325 -4.2623,0.92937 -3.97388,5.15964 2.4356,-4.87121 3.6534,-0.89733 z m -205.039,32.9127 3.0445,2.46765 2.14718,4.55073 -5.19168,-6.69791 -6.98633,0.28843 z m 239.49,3.6534 0.28843,1.24985 1.8267,0.28843 -1.8267,-1.53828 z m -198.982,0.92938 1.53827,1.8267 -1.2178,0.28843 z m 80.471,7.94775 0.86528,3.04451 1.85875,-0.92938 v 1.50623 l 4.2623,0.6089 -5.48011,2.75608 -3.36497,-6.40948 z m 109.346,7.59524 -0.57686,3.33293 -1.53827,-2.40356 z m -153.539,4.58278 2.72403,2.11513 -0.89733,4.2623 v 0.64095 l -0.28843,-0.64095 -0.92937,-1.8267 1.79465,-2.4356 z m -24.356,10.6718 4.83916,5.76854 0.32047,0.6089 0.92938,-5.80058 -1.24985,13.3958 v -1.50623 l -0.28843,-0.28842 -3.36498,-1.53828 3.04451,0.92938 0.32047,-0.64095 0.6089,-2.40356 -0.6089,-0.92937 -0.92937,-0.32048 h -2.11513 l 2.72403,-0.89732 -3.04451,-1.53828 -0.6089,-2.72403 h -3.36497 l 3.07655,-0.32047 z m 34.0984,2.11513 1.8267,3.97388 -1.8267,11.2486 1.53827,-11.5691 -1.53827,-3.65341 z m -53.6153,2.4356 -1.2178,3.33293 0.6089,0.92938 1.18576,-0.92938 -0.57686,2.43561 -1.8267,-2.11513 z m 193.47,16.4403 2.11512,10.9923 -3.6534,-6.08901 1.53828,-4.90325 z m -128.254,4.29435 -2.46765,1.79466 v 0.32047 l 1.2178,0.6089 z m 44.1613,6.37744 -2.14718,13.7163 3.36498,-7.01839 3.97388,-2.11512 3.33293,-1.82671 0.89733,-0.64094 9.99879,-0.80119 0.38456,-0.0641 0.0641,0.032 0.54481,-0.032 10.0629,6.95428 -10.6077,-6.92224 -0.44866,0.032 -10.8961,2.33946 -3.33293,0.92937 -4.29435,3.04451 0.32047,3.94183 -10.6718,10.3513 -0.32048,4.29435 -0.28843,-3.97388 7.62729,-8.52461 2.4356,-13.7163 z m 62.7488,0.32047 -0.92937,3.33293 -3.33293,3.0445 -0.32047,-2.11512 z m 9.45399,3.33293 -1.8267,0.64095 0.6089,1.50623 -3.04451,-0.92938 z m -0.6089,5.48011 0.6089,1.53827 2.14717,-0.28842 1.18576,3.0445 2.17922,-1.24985 0.57686,0.92938 -3.65341,1.2178 -0.28843,4.55073 -3.6534,2.4356 3.0445,0.92937 -2.14717,1.53828 -2.14718,-0.6089 0.32048,2.11513 -1.21781,0.92937 0.28843,-2.4356 -2.72403,-1.2178 -1.8267,2.72403 -0.92937,-3.97388 1.8267,-9.42194 3.0445,-1.50622 1.53828,0.89732 z m -16.1519,3.0445 -2.43561,2.4356 0.6089,-2.11513 z m -94.7642,3.36498 1.53827,0.6089 -1.53827,0.92937 z m 40.8604,3.6534 -1.24984,1.85875 1.53827,0.57685 -1.8267,2.75608 -0.64095,-4.58278 z m 49.9619,0 1.50622,2.11513 -2.4356,2.14718 z m 1.18575,8.52461 2.75608,11.6012 -1.2178,2.11513 3.94183,3.33293 2.46765,8.55666 -3.04451,-1.21781 -1.53827,-5.80058 -4.26231,-5.4801 0.28843,-9.77446 -0.89733,1.24985 1.50623,-4.58278 z m 45.0907,11.2807 -0.57686,2.11513 1.50623,1.53827 -0.6089,-2.4356 z m -33.4895,8.81303 2.75608,2.46765 -2.75608,-0.6089 z m -10.3513,4.29435 1.79465,0.28843 -3.0445,1.8267 z m -2.75608,0.60891 -2.14717,3.97387 -1.79466,0.28843 0.28843,-2.14718 z m 22.2409,4.2623 2.11513,2.14718 1.53827,6.98633 -1.53827,4.55073 1.85875,9.16556 -2.75608,-1.2178 -2.14717,-8.81304 1.85874,-2.75608 -1.2178,-7.9157 -0.32047,-1.24985 h 0.32047 z m -19.1964,6.40948 h 0.32047 v 1.8267 l -1.53828,0.6089 z m 59.4159,2.4356 -0.6089,1.50623 0.89733,0.92938 z m 24.0676,2.72403 -2.4356,2.11513 -0.32048,4.29435 -2.40355,2.11513 -1.24985,-0.89733 v 3.04451 h -0.92937 l -1.79466,3.6534 0.28843,-1.8267 -2.11513,2.4356 0.57685,1.2178 -1.18575,0.6089 0.32047,-1.8267 -2.17922,1.53828 v 2.11513 l -1.18576,-1.2178 -7.3068,2.14717 -3.04451,6.08901 0.6089,11.2807 -4.90325,5.76854 -1.79465,4.58277 0.6089,11.8896 3.33293,1.79466 8.52461,-2.11513 14.9341,-30.1566 0.89732,-4.55073 1.85875,-1.53828 v -6.089 l 1.18576,-0.32048 0.64095,2.43561 1.50622,-2.43561 -0.6089,-11.2486 -2.4356,-3.36498 0.6089,-1.53828 z m -19.8053,0.32048 -0.89733,0.6089 1.18575,0.89732 z m -68.8699,21.0231 -4.23026,1.2178 -5.19168,5.19168 3.94183,-5.19168 z m 113.063,15.543 -1.24984,2.43561 1.53827,-1.24985 z m -7.62728,3.97388 -1.50623,0.57685 1.50623,1.53828 z m -120.658,28.2979 -0.92938,1.8267 -1.63441,-0.51276 h -0.0641 l 1.08961,0.83323 -1.50622,-0.6089 0.41661,-0.22433 -0.0961,-0.0641 0.16024,0.0641 2.56379,-1.31394 z" />
  <path
     id="african-countries"
     style="fill:#336633;fill-opacity:1;stroke:none;stroke-width:0.6;stroke-linecap:butt;stroke-linejoin:miter;stroke-miterlimit:4;stroke-dasharray:none;stroke-dashoffset:0;stroke-opacity:1"
     d="m 144.81417,0.00111 -7.01838,2.14718 -5.44806,-1.2178 -4.29435,1.8267 -5.15963,-1.2178 -10.99226,1.8267 -4.55073,2.4356 -3.33293,0.6089 -4.58278,2.4356 h -3.0445 l -0.32048,-1.50622 -6.37743,0.92937 -2.14718,-2.78812 -1.8267,0.6089 -4.8712,7.01838 -10.67179,5.80058 -3.33293,4.58277 -0.92937,5.44806 -0.32048,0.32047 -2.4356,3.0445 -6.08901,4.26231 -5.44806,1.24985 -3.97387,5.4801 -3.65341,2.11513 -3.0445,6.37743 -4.23026,3.42908 -6.44153,9.38988 -1.50622,4.26231 0.86528,-1.50623 1.85874,4.23026 -2.11512,3.97388 0.57685,7.33885 -3.6534,9.42194 -4.26231,4.29435 3.36498,3.90978 -0.32048,2.46765 3.68546,-0.6089 -3.04451,1.2178 -1.24985,-0.89732 -0.92937,3.94183 h 2.17922 l -2.17922,0.89733 3.0445,0.32047 -1.50623,1.2178 1.82671,0.32047 -0.6089,1.18576 4.2623,-1.18576 -2.4356,0.92938 1.8267,0.86528 -2.11513,1.24985 0.92938,1.50623 1.18575,-0.57686 -0.57685,1.18576 1.50622,-0.92938 0.6089,4.29435 1.82671,0.89733 1.8267,0.92938 -0.92938,1.50622 1.53828,0.6089 0.28843,3.97388 1.53827,-0.28842 -2.11513,0.6089 3.33293,3.33293 -0.28842,1.8267 5.15963,2.72403 10.06288,9.45398 5.19168,2.14718 6.08901,-3.04451 9.45398,-1.2178 8.81304,2.43561 9.13351,-4.26231 6.40948,-2.46765 11.28068,-2.40355 -1.85874,1.2178 4.58277,0.32047 3.04451,2.72403 1.53827,-0.92937 -1.53827,1.24984 2.14717,0.28843 -1.53827,0.28843 0.64095,0.92937 1.50622,-0.92937 -1.50622,1.8267 3.0445,4.29435 3.33293,-0.32047 v -1.2178 l 0.6089,1.2178 -0.28843,-1.53828 0.89733,1.53828 0.6089,-1.8267 1.2178,1.2178 4.29435,-0.32048 -0.32047,-1.79465 1.50623,2.11513 1.53827,-1.2178 1.50623,3.6534 2.46765,-0.6089 0.57685,1.2178 h -1.18575 l 1.79466,3.6534 -3.04451,9.13351 1.85875,0.32048 -0.32047,3.0445 -1.53828,-0.32047 3.04451,1.53827 -2.11513,0.6089 -0.92938,-1.2178 -0.92937,4.87121 h -2.11513 l 4.58278,8.23618 10.06288,9.74241 2.11513,6.08901 2.4356,1.2178 -2.11513,0.6089 5.48011,10.96021 -1.8267,3.0445 2.11513,4.29436 2.11513,4.83915 -0.86528,5.83263 -5.22373,5.44806 -3.33293,11.31273 0.6089,9.74241 12.49849,20.38215 2.14717,16.44032 9.74241,15.57504 4.23026,6.98633 0.32048,3.33293 -1.82671,1.24985 2.14718,5.76853 1.53827,-0.89732 4.55074,3.0445 10.35131,-3.33293 8.84508,0.89733 8.84508,-2.43561 13.10739,-9.13351 4.26231,-5.4801 1.8267,-2.14718 4.83916,-3.97388 3.97387,-10.31926 -0.6089,0.86528 -1.2178,-1.50623 13.42786,-7.91571 1.18576,-8.52461 -2.72403,-7.3068 0.28843,-3.97388 0.92937,0.92937 6.69791,-4.58278 2.75607,-4.55073 13.71629,-6.40948 0.6089,-1.2178 4.23026,-6.08901 -0.86528,-8.84508 0.86528,-0.92937 -0.6089,-6.69791 1.53827,-3.0445 -2.72402,-2.11513 -1.24985,-0.92938 v -0.28842 l -1.18576,-7.94776 0.89733,-2.11513 h -1.2178 l 1.8267,-3.97388 -3.36498,-4.55073 2.14718,-6.40948 3.6534,-7.62728 0.92938,-1.8267 3.6534,-2.11513 -0.92937,-1.50623 h 2.46765 l 9.74241,-12.85101 10.31926,-8.20413 7.62728,-9.74241 10.06289,-23.4587 v -2.75608 l -0.28843,-1.53827 2.11513,-0.57686 h -1.50623 l 0.28843,-6.37743 -2.14718,-0.92938 -4.83915,3.04451 -8.26823,0.92937 -3.62136,2.11513 -2.75608,-0.92937 -4.8712,2.4356 -6.37744,-5.80058 -2.75607,0.32047 3.6534,-2.11513 -0.6089,-2.14717 -10.06288,-10.06289 -4.26231,-1.50622 -0.92937,-1.53828 -0.89733,-0.89733 -0.28843,1.82671 -6.40948,-13.71629 -5.51215,-3.68545 -2.40356,-10.31927 0.89733,0.57685 -2.40355,-4.55073 -5.51216,-3.97387 -1.50623,-4.26231 h 1.18576 l -3.04451,-2.4356 -8.20413,-14.32519 -4.58278,-4.87121 -1.08961,-3.6534 c -0.0121,-0.0186 -0.0206,-0.0449 -0.032,-0.0641 -0.0616,-0.10344 -0.12835,-0.225 -0.16023,-0.35253 -0.20906,-0.83622 -0.70505,-1.71627 -0.70505,-2.78812 -10e-6,-0.15107 0,-0.2976 0,-0.44866 0,-0.45866 -0.0577,-0.9373 -0.12819,-1.41009 l -1.53827,0.22433 -0.89733,-1.85875 -3.6534,-0.32047 -7.33886,3.0445 -8.49256,-2.40355 -7.33886,-0.32048 -1.2178,-1.82669 -6.6979,-0.89733 -0.92938,-1.85875 -5.4801,-1.18575 -6.40949,3.0445 v 5.44805 h -0.28842 l -4.29435,2.17923 -4.55074,-2.46765 -8.5246,-2.11513 -2.14718,-3.97387 -7.30681,-2.11513 -4.23026,0.28843 -8.26823,-3.65341 -0.6089,-1.85875 4.90326,-3.90978 -2.43561,-3.68545 2.43561,-3.6534 -2.43561,1.50622 -2.46765,-2.4356 z m -108.09589,55.21767 0.25638,-0.38457 -0.92937,0.92937 z m 14.58157,-22.59342 -2.14718,1.53827 1.53828,-0.64095 z m -2.14718,1.8267 -3.0445,3.0445 1.8267,-0.6089 z m -8.20413,0.89733 -3.0445,0.92937 0.28842,1.53828 z m 0.89733,1.53827 -0.6089,1.2178 1.50622,-0.28842 z m 198.95027,17.94655 1.53828,4.90325 -4.2623,0.92937 -3.97388,5.15964 2.4356,-4.87121 3.6534,-0.89733 z m -205.03928,32.91268 3.0445,2.46765 2.14718,4.55073 -5.19168,-6.69791 -6.98633,0.28843 z m 239.49024,3.6534 0.28843,1.24985 1.8267,0.28843 -1.8267,-1.53828 z m -118.51129,8.87713 0.86528,3.04451 1.85875,-0.92938 v 1.50623 l 4.2623,0.6089 -5.48011,2.75608 -3.36497,-6.40948 z m 109.34574,7.59524 -0.57686,3.33293 -1.53827,-2.40356 z m -153.53911,4.58278 2.72403,2.11513 -0.89733,4.2623 v 0.64095 l -0.28843,-0.64095 -0.92937,-1.8267 1.79465,-2.4356 z m -24.35603,10.67178 4.83916,5.76854 0.32047,0.6089 0.92938,-5.80058 -1.24985,13.39581 v -1.50623 l -0.28843,-0.28842 -3.36498,-1.53828 3.04451,0.92938 0.32047,-0.64095 0.6089,-2.40356 -0.6089,-0.92937 -0.92937,-0.32048 h -2.11513 l 2.72403,-0.89732 -3.04451,-1.53828 -0.6089,-2.72403 h -3.36497 l 3.07655,-0.32047 z m 34.09844,2.11513 1.8267,3.97388 -1.8267,11.24864 1.53827,-11.56911 z m -53.61531,2.4356 -1.2178,3.33293 0.6089,0.92938 1.18576,-0.92938 -0.57686,2.43561 -1.8267,-2.11513 z m 193.47018,16.44032 2.11512,10.99226 -3.6534,-6.08901 z m -128.25371,4.29435 -2.46765,1.79466 v 0.32047 l 1.2178,0.6089 z m 44.16132,6.37744 -2.14718,13.71629 3.36498,-7.01839 3.97388,-2.11512 3.33293,-1.82671 0.89733,-0.64094 9.99879,-0.80119 0.38456,-0.0641 0.0641,0.032 0.54481,-0.032 10.06288,6.95428 -10.60769,-6.92224 -0.44866,0.032 -10.89612,2.33946 -3.33293,0.92937 -4.29435,3.04451 0.32047,3.94183 -10.67178,10.35131 -0.32048,4.29435 -0.28843,-3.97388 7.62729,-8.52461 2.4356,-13.71628 z m 62.74881,0.32047 -0.92937,3.33293 -3.33293,3.0445 -0.32047,-2.11512 z m 9.45399,3.33293 -1.8267,0.64095 0.6089,1.50623 -3.04451,-0.92938 z m -0.6089,5.48011 0.6089,1.53827 2.14717,-0.28842 1.18576,3.0445 2.17922,-1.24985 0.57686,0.92938 -3.65341,1.2178 -0.28843,4.55073 -3.6534,2.4356 3.0445,0.92937 -2.14717,1.53828 -2.14718,-0.6089 0.32048,2.11513 -1.21781,0.92937 0.28843,-2.4356 -2.72403,-1.2178 -1.8267,2.72403 -0.92937,-3.97388 1.8267,-9.42194 3.0445,-1.50622 1.53828,0.89732 z m -16.15189,3.0445 -2.43561,2.4356 0.6089,-2.11513 z m -94.76417,3.36498 1.53827,0.6089 -1.53827,0.92937 z m 40.86043,3.6534 -1.24984,1.85875 1.53827,0.57685 -1.8267,2.75608 -0.64095,-4.58278 z m 49.96191,0 1.50622,2.11513 -2.4356,2.14718 z m 1.18575,8.52461 2.75608,11.60116 -1.2178,2.11513 3.94183,3.33293 2.46765,8.55666 -3.04451,-1.21781 -1.53827,-5.80058 -4.26231,-5.4801 0.28843,-9.77446 -0.89733,1.24985 z m 45.0907,11.28069 -0.57686,2.11513 1.50623,1.53827 -0.6089,-2.4356 z m -33.48954,8.81303 2.75608,2.46765 -2.75608,-0.6089 z m -10.35131,4.29435 1.79465,0.28843 -3.0445,1.8267 z m -2.75608,0.60891 -2.14717,3.97387 -1.79466,0.28843 0.28843,-2.14718 z m 22.2409,4.2623 2.11513,2.14718 1.53827,6.98633 -1.53827,4.55073 1.85875,9.16556 -2.75608,-1.2178 -2.14717,-8.81304 1.85874,-2.75608 -1.2178,-7.9157 -0.32047,-1.24985 h 0.32047 z m -19.19639,6.40948 h 0.32047 v 1.8267 l -1.53828,0.6089 z m 59.41588,2.4356 -0.6089,1.50623 0.89733,0.92938 z m 24.0676,2.72403 -2.4356,2.11513 -0.32048,4.29435 -2.40355,2.11513 -1.24985,-0.89733 v 3.04451 h -0.92937 l -1.79466,3.6534 0.28843,-1.8267 -2.11513,2.4356 0.57685,1.2178 -1.18575,0.6089 0.32047,-1.8267 -2.17922,1.53828 v 2.11513 l -1.18576,-1.2178 -7.3068,2.14717 -3.04451,6.08901 0.6089,11.28068 -4.90325,5.76854 -1.79465,4.58277 0.6089,11.88959 3.33293,1.79466 8.52461,-2.11513 14.93409,-30.15661 0.89732,-4.55073 1.85875,-1.53828 v -6.089 l 1.18576,-0.32048 0.64095,2.43561 1.50622,-2.43561 -0.6089,-11.24863 -2.4356,-3.36498 z m -19.80529,0.32048 -0.89733,0.6089 1.18575,0.89732 z m -68.86987,21.02309 -4.23026,1.2178 -5.19168,5.19168 3.94183,-5.19168 z m 113.06323,15.54299 -1.24984,2.43561 1.53827,-1.24985 z m -7.62728,3.97388 -1.50623,0.57685 1.50623,1.53828 z m -120.65847,28.29786 -0.92938,1.8267 -1.63441,-0.51276 h -0.0641 l 1.08961,0.83323 -1.50622,-0.6089 0.41661,-0.22433 -0.0961,-0.0641 0.16024,0.0641 2.56379,-1.31394 z M 0.11317,95.33511 1.01855,95.29741 0,93.82618 Z" />
  <path
     id="african-borders"
     style="fill:none;fill-opacity:1;stroke:#ffffff;stroke-width:0.6;stroke-linecap:butt;stroke-linejoin:miter;stroke-miterlimit:4;stroke-dasharray:none;stroke-dashoffset:0;stroke-opacity:1"
     d="m 288.44483,106.82615 -11.7823,-9.07135 -7.00286,-0.32769 -2.32577,-1.62414 -1.22886,3.617 -4.40535,-0.64319 m -44.96658,206.43973 -0.91404,-0.60936 m -0.30468,-1.21872 0.30468,1.21872 m 0.91404,0.60936 2.13275,0.91403 1.21872,-2.13275 2.13275,-0.60936 m 56.3656,-86.2241 1.82808,-0.91404 m -53.3188,53.0141 0.60936,0.60935 m -13.7106,10.6638 -2.43743,0.60935 m 25.593,9.14037 -0.30468,-3.96083 m 17.976,-62.7639 v -0.30468 z m -44.7878,61.2405 1.5234,-3.65615 m 3.04679,20.7182 0.91403,1.52339 m -9.44504,-54.5375 -13.1012,2.43743 m 52.7094,-3.04679 -0.60935,4.57019 m -58.803,28.3351 v 7.3123 m 35.9521,9.14036 -4.2655,1.21872 -3.35147,3.04679 m 57.2796,-81.3493 6.70293,-3.35146 m -50.8814,52.7094 8.22633,0.91404 5.48422,-4.57018 m -20.4135,-3.96083 0.91404,4.87486 5.17954,2.13276 m -25.2883,-18.2807 1.5234,2.43743 7.31229,-3.35146 m 23.765,-9.74973 v 1.5234 l 11.2731,3.35146 v 3.04679 m -4.2655,17.9761 0.30468,-3.35147 2.74211,-2.74211 -0.91404,-4.87486 1.5234,-2.43743 m -9.14037,17.976 2.13275,9.14037 -0.60936,5.17954 -0.91403,1.52339 -3.04679,-0.30468 -1.82807,3.65615 2.74211,2.13275 h 1.82807 l 0.30468,-2.13275 3.65614,0.30468 m -17.976,13.1012 1.21872,-0.30468 1.52339,-2.43743 -2.74211,-3.04679 m -8.22633,-17.062 3.35147,-4.87487 10.3591,-5.7889 m -21.6322,-21.0228 3.65615,0.30468 4.57018,8.83569 6.70293,4.57018 m -34.7334,15.2339 v 3.35146 l 2.74211,3.04679 v 6.09358 m 12.7965,-39.3036 -10.3591,1.5234 -0.60936,16.4527 h -4.2655 m 16.148,-19.4995 -6.70293,-6.70294 0.60935,-14.6246 h 9.14037 l 0.30468,-10.0544 m 3.96082,66.7247 -3.65614,0.91404 -7.00762,-2.13276 -4.57018,5.7889 -5.7889,0.91404 m 4.26551,-38.9989 -6.39826,-0.60936 m 23.7649,-0.60935 7.92165,0.91403 3.96083,-4.57018 4.2655,-1.82807 0.91404,-2.74211 6.70294,-1.5234 -0.60936,-3.04679 13.7106,-4.57018 m 6.70293,-18.8901 1.82808,7.61697 m 15.5386,-0.91404 -2.13275,-0.60935 -2.43743,2.13275 -7.00762,-1.5234 -5.48422,0.91404 -1.21871,3.04679 0.60935,5.17954 5.17955,7.00762 -0.91404,5.48422 -3.04679,2.43743 0.30468,2.43743 -3.96083,-5.48422 1.82808,-6.09358 h -3.96083 l -3.96082,-4.57018 1.82807,-4.57019 2.43743,-1.21871 -0.91404,-7.00762 1.82808,-1.52339 -1.21872,-2.74211 m -21.9369,0 0.60936,3.35147 -1.82807,3.96082 2.74211,3.96083 3.65614,-0.91404 -0.30468,6.09358 -3.65614,-0.30468 -7.92165,-8.53101 -2.13276,2.13275 -3.35146,-0.60935 -3.04679,-1.21872 v -2.13275 l -4.87487,0.91403 -1.21871,-2.43743 -8.22633,1.82808 0.30468,-4.26551 -0.91404,-1.82807 m -10.9685,74.64635 -0.30468,8.53101 m 0,0 -3.65614,2.13275 -3.96083,-0.30468 -3.35147,-0.60936 -1.52339,-3.04679 -2.43743,2.43743 m 15.5386,-28.6398 -0.30468,8.83569 m 0.60936,-27.1164 -4.87486,-0.30467 -2.13276,-2.13276 -20.4135,0.30468 -2.74211,-2.13275 -7.31229,1.21872 m 130.707,-99.0206 3.35147,-2.74211 4.87486,1.52339 7.61697,-4.57018 h 5.48422 l 11.5778,-14.6246 h -3.96083 l -15.2339,-6.70294 -1.82807,-2.74211 m -59.1077,54.2328 -1.52339,1.52339 m 21.9369,-9.44504 -0.30468,6.09357 m 2.74211,-10.0544 -2.43743,4.26551 m -21.9369,9.14036 -1.21872,4.87486 m 24.679,-35.0381 4.26551,-2.13275 1.82807,2.13275 m -23.4603,33.5147 1.5234,-1.52339 -1.82807,-4.87487 m 0.60935,33.8194 9.74973,5.7889 m 5.7889,-64.8966 4.2655,8.22634 0.30468,3.96082 -2.13275,2.74211 m 6.09358,-16.7573 h -7.00762 l -3.96082,3.96083 -5.7889,1.21871 -4.87487,-1.21871 -1.52339,1.21871 m -6.70294,38.0849 0.60936,8.83569 5.17954,8.83569 -8.53101,1.52339 m 1.82808,-24.3743 0.91403,5.17954 h 1.5234 l 5.17954,-7.00761 -1.82807,-0.60936 0.60935,-2.13275 -2.74211,-0.60936 -1.21871,2.43743 -3.04679,-0.91403 0.60936,3.65614 m 18.2807,31.3819 -1.82807,-2.74211 6.09358,1.52339 0.60935,1.21872 m -0.91403,-95.0598 -0.30468,6.70294 -3.96083,0.60936 -0.60936,3.04679 3.04679,0.60935 4.57019,4.57019 3.04679,6.39825 2.43743,0.30468 0.60935,3.65615 4.87487,0.91404 4.87486,3.65614 6.39826,0.91404 1.82807,-1.52339 m -76.1697,-29.8585 0.60935,0.60936 -0.60935,5.48422 h 3.35146 l -0.30467,1.82808 5.17954,2.13275 -0.30468,1.82807 5.7889,3.96083 0.30468,2.74211 3.65614,1.82807 2.74211,5.17954 3.04679,1.5234 5.48422,-1.82808 6.09358,5.48422 -0.60936,5.17954 2.43743,1.5234 -6.09358,6.09358 -1.82807,10.6638 5.48422,-1.82808 h 15.2339 l 15.8433,9.44505 v 2.43743 l 7.00761,5.48422 m -79.2165,25.2883 -1.52339,-2.74211 0.30468,-10.0544 -8.53101,-0.91404 m 41.741,6.70293 -2.74211,3.65615 0.91404,3.35147 m -125.528,-77.3884 -0.91404,0.30468 m -1.82807,0.60936 -2.43743,-2.43743 m 58.1937,59.4124 -3.65615,0.91404 m -45.3972,-59.4124 0.30468,-7.00761 m 48.444,59.7171 -3.04679,1.82807 0.30468,3.35147 -1.5234,0.30468 m -49.9673,-75.2557 0.91404,4.57019 0.60936,13.1012 m 37.1708,18.5854 7.00762,0.91404 0.30468,5.48422 -8.83569,0.30468 m -27.1164,-42.9597 -2.13275,4.26551 -1.5234,0.30468 -0.60936,5.48422 m -10.3591,-10.0544 -0.60936,2.43744 1.5234,0.30467 v 13.4059 m 69.4668,-4.57019 -5.17954,7.00762 3.04679,10.3591 4.87486,4.87486 0.30468,5.48422 -7.61697,-2.13275 h -6.09358 m 23.4603,-1.21872 -2.43743,14.3199 -7.3123,7.61697 -1.21871,8.53101 -6.09358,4.57019 -1.21872,-3.04679 -4.57018,3.04679 -3.04679,-2.43743 -3.65614,3.04678 m -3.35147,-34.4287 9.14036,-0.30468 -0.30467,4.87486 5.17954,-0.60935 0.91403,2.43743 -2.74211,4.87486 3.04679,2.13275 v 3.65615 l -1.82807,5.17954 -1.82807,-1.82807 -1.21872,1.52339 -2.43743,-0.30468 -1.5234,-2.43743 -0.91403,2.43743 h -4.26551 l 1.82808,6.09358 -2.13276,-0.60936 -1.82807,2.13275 m 10.3591,-66.42 -8.22633,16.148 -1.82807,0.60935 -2.74211,-3.35146 -3.65615,1.82807 -4.57018,4.57018 -1.52339,5.48422 m 54.5375,56.0609 -2.13276,-0.30468 -0.91403,4.57018 -8.22633,0.60936 -3.35147,-4.2655 -1.82807,-6.09358 -16.148,-0.30468 m -60.3264,-79.8259 v -0.30468 m 0,1.82807 v -1.52339 m 1.52339,3.04679 -1.52339,-1.5234 m 16.4527,-5.17954 2.74211,-8.53101 6.70293,-1.82807 m -15.2339,10.3591 0.30468,-2.74211 2.13275,-0.60935 m -2.43743,3.35146 -4.26551,0.91404 -1.52339,2.13275 -4.87486,-0.30468 m 3.96082,0.60936 -0.60936,2.74211 2.43743,1.82807 m 57.2796,-17.3667 -0.91404,-3.65615 9.44504,-10.9684 2.43744,-15.8433 -3.35147,-5.17954 -0.91404,-6.39826 m -56.6703,48.1393 3.35147,3.35146 0.91403,5.17954 -1.52339,2.74211 m -14.3199,-1.21871 -0.30468,1.21871 m 24.679,-18.2807 3.96083,1.21872 2.13275,3.04679 3.96082,-1.82808 8.53101,2.74211 4.87487,-2.74211 8.22633,1.5234 5.48422,-3.04679 2.43743,6.09358 2.13275,0.91403 -0.30468,3.35147 -3.96083,2.13275 -2.43743,4.87486 m -76.1697,23.1556 h 0.91404 m 0.60936,-2.13275 -0.60936,2.13275 m 2.13275,-17.3667 0.30468,2.74211 -3.65615,7.61698 1.82808,4.87486 m -31.6866,-14.0152 -5.7889,7.61697 m 38.6942,-14.6246 0.30468,5.7889 m -29.5539,6.39826 -1.5234,-5.48422 -4.2655,1.52339 m 13.1012,-0.60935 -2.43743,-0.30468 0.91404,2.13275 -1.21872,2.13275 -1.82807,-0.60936 -2.13276,2.13276 -0.60935,-0.91404 m -16.148,-7.61697 3.65614,-3.96083 5.17954,-0.60936 2.43743,4.57019 -0.91403,3.65614 m 9.44504,3.35147 0.60936,2.43743 -1.52339,2.43743 4.87486,3.35147 -0.60936,7.00762 m -0.60936,-26.8118 -0.91403,2.43744 1.21871,0.30467 0.60936,4.87487 m 21.9369,-5.17954 -2.13275,-2.13276 -6.39826,1.21872 -1.52339,-1.5234 m 216.627,28.6398 -3.96083,5.48422 m 0,0 v 17.6714 l 2.43743,3.65614 m -64.2872,-31.9913 -9.14037,-1.5234 -1.21871,1.5234 -4.26551,-0.30468 -4.57018,2.43743 -2.43743,-0.91404 -2.74211,3.04679 -8.22633,-1.21871 -2.74211,-1.82808 m 5.48422,-24.679 -3.65615,3.96083 -1.82807,0.30468 m -15.2339,7.31229 4.26551,-2.13275 m 3.96082,23.4603 -0.30468,-2.74211 -8.53101,0.60936 -2.13275,6.09358 m 2.74211,-25.2883 -1.21871,-1.52339 -4.87487,1.52339 -1.52339,-4.57018 -5.7889,-5.17954 1.21872,-1.82808 h 7.00761 m 20.4135,24.679 -2.74211,-1.52339 -4.26551,3.65615 0.60936,4.2655 m 6.39826,-26.8117 -4.87487,0.60936 0.60936,1.21871 -2.43743,3.04679 -4.2655,0.30468 m -81.9586,-14.6246 -0.60936,-0.30468 m -57.2796,-5.17954 v -1.82807 m 17.6714,1.82807 0.30468,-1.21871 m -17.976,1.21871 -1.21872,0.60936 m 15.8433,-69.7715 h 16.7573 m 1.82808,77.6931 -3.04679,0.91404 m -12.1872,-10.6638 1.82807,2.43743 m 10.3591,8.22633 0.30467,-2.13275 -1.82807,0.30468 m -21.6322,-19.1948 0.30468,4.87486 m 37.1708,-50.8814 17.6714,14.0152 m -4.2655,49.0533 -12.7965,0.30468 m -35.6474,-6.39825 v 1.82807 l 1.5234,-0.91404 1.21871,1.5234 m 0,0 1.5234,-1.5234 3.96082,-0.30468 m 25.593,-4.57018 4.87486,-4.87486 1.82807,0.60936 0.30468,-1.82808 5.7889,-2.43743 3.04679,0.30468 m -30.4679,20.4135 -1.82807,2.43743 -1.82808,-1.5234 -2.43743,1.21872 m -28.6398,-3.65615 1.52339,-2.43743 3.96083,-1.21872 -0.60936,-1.82807 m 46.6159,5.17954 v 4.87486 m -9.74972,-25.593 0.91403,-3.96083 -0.91403,-0.91403 1.52339,-37.7802 h 7.31229 l -13.4059,-9.74972 m 4.57019,52.4048 -16.148,-0.91404 -0.30467,1.21872 h -5.48422 l -0.91404,1.52339 -2.13275,-2.74211 -2.74211,4.26551 m -18.5854,5.48422 6.09358,-1.21872 4.57019,1.82807 -2.13276,0.91404 -3.04679,-1.52339 -6.39825,2.43743 m 31.3819,4.87486 1.5234,3.04679 -1.21872,1.82807 1.5234,-0.30468 1.21871,3.65615 -0.30468,1.21871 m -15.5386,-17.3667 2.74211,3.35147 -0.30468,2.74211 -15.5386,-1.21872 -5.7889,1.52339 m 19.8041,-11.2731 -7.92165,-8.83569 -7.61698,0.60936 -1.21871,2.13275 m 44.1784,28.3351 -2.13275,-2.13275 1.82807,-4.57018 -0.60936,-1.82807 4.57018,-2.43744 2.13276,-5.48422 2.13275,1.21872 m -50.272,-34.4287 1.21872,-2.43744 h 14.6246 l 1.21872,-7.00761 4.57018,-2.43743 2.43743,-10.9684 h 12.7965 l 2.74211,-11.5778 12.1872,-5.48422 m 209.61939,84.70077 -4.87486,0.30468 -0.30468,-2.43743 2.43743,-4.87486 2.74211,-0.91404 m 0.91405,12.79637 -2.13276,-3.04678 2.43743,-3.96083 m -38.3895,-53.0141 -6.09357,5.7889 -3.65615,-0.91403 m -35.64739,7e-5 h 27.4211 l 0.60936,-0.91404 c 10.48387,20.16129 0.30468,0.91404 0.30468,0.91404 h 7.31229 m -39.30357,11.27315 0.60936,17.3667 -4.87486,0.60936 -4.87486,12.7965 3.04679,0.91404 2.13275,7.92165 -5.48422,1.21872 -2.43743,3.04678 m 12.4918,-89.5756 1.21872,3.04679 2.43743,40.2176 h -4.57019 l 0.30468,2.43743 -18.2807,-9.14036 M 94.5568,114.18318 v -0.60936 m 67.334,-8.22633 -2.43743,-1.21871 m -43.2644,-27.7258 7.00761,-1.21872 7.61697,-6.39825 m -19.1948,24.9837 -15.8433,1.52339 m 35.0381,-26.5071 20.4135,-11.8825 m -54.5375,38.3895 0.91403,5.17954 3.35147,2.43743 -1.52339,1.5234 2.74211,1.82807 2.43743,-0.30468 0.91404,3.96083 m 61.5451,8.83568 -2.74211,-2.43743 v -7.00761 l -2.43743,-3.96083 m -50.272,-11.5778 3.35147,-4.87487 1.21872,-12.4918 -4.26551,0.91404 v -3.96083 l -5.7889,-1.82807 -7.31229,-7.00762 m 87.7475,1.21872 -17.6714,-8.83569 -7.92165,3.96083 -3.04679,-2.43744 -6.70293,-1.52339 -1.5234,-3.35147 -5.78889,-1.52339 -3.35147,-6.70294 2.13275,-1.52339 0.91404,-5.48422 -1.82808,-9.14037 m -60.3264,-8e-5 9.14037,-3.96082 v -3.04679 l 3.96083,-1.5234 h 6.39825 V 9.98281 L 99.43163,8.7641 m 106.94199,13.71064 -1.21872,6.09357 0.30468,0.60936 m -63.06897,-0.91402 -1.21871,-7.61697 -2.74211,-1.82807 -2.74211,-5.48422 3.35146,-3.04679 0.60936,-7.00761 1.82807,-1.82808 m 0.30468,27.7258 -0.30468,-0.30468 3.96083,-2.74211 0.60936,-3.96082 5.48422,-3.04679 V 16.3812 m 28.944,135.27698 -1.52339,3.04679 m 21.93841,-40.21693 3.04679,4.2655 0.5987,0.99016 -0.71396,4.81923 m 0.62026,-3.19435 3.67802,0.0313 3.01981,-3.26263 h 3.39131 l 1.96339,2.85584 7.1396,-0.35698 5.49415,-0.10047 c 1.47111,-0.15094 2.35943,-0.25662 2.35943,-0.25662 v 0 -1.60641 l 2.49886,-1.24943 v 0 l 3.5698,2.49886 1.60641,0.71396 4.86394,-6.18753 0.13378,-3.62941 -1.10075,-1.05672 3.06413,-0.0142 -0.17849,-1.21827 1.96339,0.1473 0.35698,8.21053 m 0,0 1.96339,0.53547 0.89245,1.7849 m 0,0 v 2.67735 m 0,0 c 14.37908,-1.30719 1.96339,-0.89245 1.96339,-0.89245 m 0,0 0.21003,-2.23959 v -2.74211 l 1.21871,-1.52339 1.21872,0.91404 0.91403,-5.17954 2.43744,-3.96083 1.82807,-0.30468 2.13275,-20.1088 h 1.82807 l 4.26551,-4.2655" />
  <path
     style="fill:#336633;fill-opacity:1;stroke:#ffffff;stroke-width:0.6;stroke-linecap:butt;stroke-linejoin:miter;stroke-miterlimit:4;stroke-dasharray:1.2, 0.6;stroke-dashoffset:0;stroke-opacity:1"
     d="m 224.94877,122.27411 2.70078,-0.007 1.22341,-1.14501 -0.13789,-2.17377 -4.84398,-1.4e-4 0.19531,2.07032 z"
     id="path29" />
  <path
     sodipodi:type="star"
     style="fill:#fffd1a;fill-opacity:1;stroke:#05e2ff;stroke-opacity:1"
     id="path731"
     inkscape:flatsided="false"
     sodipodi:sides="5"
     sodipodi:cx="181.55647"
     sodipodi:cy="317.83856"
     sodipodi:r1="5.741498"
     sodipodi:r2="2.870749"
     sodipodi:arg1="0.44079828"
     sodipodi:arg2="1.0691168"
     inkscape:rounded="0"
     inkscape:randomized="0"
     d="m 186.74915,320.28824 -3.81214,0.0673 -2.10569,3.17851 -1.24205,-3.60475 -3.67364,-1.02042 3.0445,-2.29519 -0.16474,-3.80917 3.12366,2.18625 3.57183,-1.33377 -1.11398,3.64636 z"
     inkscape:transform-center-x="0.22408546"
     inkscape:transform-center-y="0.33075584" />
  <path
     sodipodi:type="star"
     style="fill:#fffd1a;fill-opacity:1;stroke:#05e2ff;stroke-opacity:1"
     id="path731-6"
     inkscape:flatsided="false"
     sodipodi:sides="5"
     sodipodi:cx="181.55647"
     sodipodi:cy="317.83856"
     sodipodi:r1="5.741498"
     sodipodi:r2="2.870749"
     sodipodi:arg1="0.44079828"
     sodipodi:arg2="1.0691168"
     inkscape:rounded="0"
     inkscape:randomized="0"
     inkscape:transform-center-x="0.22408546"
     inkscape:transform-center-y="0.33075584"
     d="m 186.74915,320.28824 -3.81214,0.0673 -2.10569,3.17851 -1.24205,-3.60475 -3.67364,-1.02042 3.0445,-2.29519 -0.16474,-3.80917 3.12366,2.18625 3.57183,-1.33377 -1.11398,3.64636 z"
     transform="translate(31.242231,-8.4405154)" />
  <path
     sodipodi:type="star"
     style="fill:#fffd1a;fill-opacity:1;stroke:#05e2ff;stroke-opacity:1"
     id="path731-3"
     inkscape:flatsided="false"
     sodipodi:sides="5"
     sodipodi:cx="49.388844"
     sodipodi:cy="222.54524"
     sodipodi:r1="5.741498"
     sodipodi:r2="2.870749"
     sodipodi:arg1="0.44079828"
     sodipodi:arg2="1.0691168"
     inkscape:rounded="0"
     inkscape:randomized="0"
     inkscape:transform-center-x="0.22408546"
     inkscape:transform-center-y="0.33075584"
     d="m 54.58152,224.99492 -3.812137,0.0673 -2.105695,3.17851 -1.242047,-3.60475 -3.673644,-1.02042 3.044509,-2.29519 -0.164742,-3.80917 3.123657,2.18625 3.571829,-1.33377 -1.113983,3.64636 z"
     transform="translate(94.142313,-60.601758)" />
  <path
     sodipodi:type="star"
     style="fill:#fffd1a;fill-opacity:1;stroke:#05e2ff;stroke-opacity:1"
     id="path731-6-7"
     inkscape:flatsided="false"
     sodipodi:sides="5"
     sodipodi:cx="181.55647"
     sodipodi:cy="317.83856"
     sodipodi:r1="5.741498"
     sodipodi:r2="2.870749"
     sodipodi:arg1="0.44079828"
     sodipodi:arg2="1.0691168"
     inkscape:rounded="0"
     inkscape:randomized="0"
     inkscape:transform-center-x="0.22408546"
     inkscape:transform-center-y="0.33075584"
     transform="translate(-91.960226,-187.79873)"
     d="m 186.74915,320.28824 -3.81214,0.0673 -2.10569,3.17851 -1.24205,-3.60475 -3.67364,-1.02042 3.0445,-2.29519 -0.16474,-3.80917 3.12366,2.18625 3.57183,-1.33377 -1.11398,3.64636 z" />
</svg>
